<svg xmlns="http://www.w3.org/2000/svg" width="1500" height="850" viewBox="0 0 1500 850"><defs><style>text{font-family:Arial,Helvetica,sans-serif;fill:#1f334e}.title{font-size:30px;font-weight:700}.section{font-size:24px;font-weight:700}.label{font-size:21px}.small{font-size:18px}.tiny{font-size:16px}.math{font-family:Georgia,serif;font-style:italic}</style><marker id="m-navy" viewBox="0 0 10 10" refX="8.5" refY="5" markerWidth="7" markerHeight="7" orient="auto"><path d="M1 1 L9 5 L1 9 Z" fill="#1f334e"/></marker><marker id="m-orange" viewBox="0 0 10 10" refX="8.5" refY="5" markerWidth="7" markerHeight="7" orient="auto"><path d="M1 1 L9 5 L1 9 Z" fill="#e97732"/></marker><marker id="m-green" viewBox="0 0 10 10" refX="8.5" refY="5" markerWidth="7" markerHeight="7" orient="auto"><path d="M1 1 L9 5 L1 9 Z" fill="#35936e"/></marker><marker id="m-gray" viewBox="0 0 10 10" refX="8.5" refY="5" markerWidth="7" markerHeight="7" orient="auto"><path d="M1 1 L9 5 L1 9 Z" fill="#9ca6af"/></marker><marker id="m-purple" viewBox="0 0 10 10" refX="8.5" refY="5" markerWidth="7" markerHeight="7" orient="auto"><path d="M1 1 L9 5 L1 9 Z" fill="#745baa"/></marker></defs><rect width="100%" height="100%" fill="white"/><text x="45" y="49" text-anchor="start" class="title" style="fill:#1f334e;">03  Requirement field</text><text x="46" y="77" text-anchor="start" class="small" style="fill:#52667d;">The same history is reinterpreted under Q_t; compatibility is a policy judgment.</text><rect x="70" y="136" width="305" height="93" rx="26" fill="#dcecf8" stroke="#8fb7d6" stroke-width="1.5" opacity="1"/><text x="223" y="173" text-anchor="middle" class="label" style="fill:#1f334e;">dynamic feedback  q_t</text><text x="223" y="202" text-anchor="middle" class="small" style="fill:#1f334e;">+ evaluation metrics   - legacy API</text><ellipse cx="254" cy="316" rx="30" ry="30" fill="#f1eff8" stroke="#745baa" stroke-width="2.2" opacity="1"/><path d="M242 308 L254 299 L266 308 L266 327 L254 335 L242 327 Z" fill="none" stroke="#745baa" stroke-width="1.7" stroke-linecap="round" stroke-linejoin="round" opacity="1"/><ellipse cx="249" cy="316" rx="2.5" ry="2.5" fill="#e97732" stroke="#e97732" stroke-width="1.5" opacity="1"/><ellipse cx="259" cy="316" rx="2.5" ry="2.5" fill="#e97732" stroke="#e97732" stroke-width="1.5" opacity="1"/><text x="254" y="381" text-anchor="middle" class="small" style="fill:#1f334e;font-weight:700;">Git Agent</text><path d="M254 231 V282" fill="none" stroke="#52667d" stroke-width="2" stroke-linecap="round" stroke-linejoin="round" opacity="1" marker-end="url(#m-navy)"/><path d="M224 336 C170 365 130 414 89 452" fill="none" stroke="#9ca6af" stroke-width="1.2" stroke-linecap="round" stroke-linejoin="round" opacity="1" stroke-dasharray="4 5"/><path d="M285 300 C379 189 495 167 578 214" fill="none" stroke="#9ca6af" stroke-width="1.7" stroke-linecap="round" stroke-linejoin="round" opacity="1" stroke-dasharray="6 5" marker-end="url(#m-gray)"/><text x="435" y="213" text-anchor="middle" class="small" style="fill:#9ca6af;">INSPECT G_&lt;t</text><ellipse cx="833" cy="355" rx="427" ry="251" fill="#dcecf8" stroke="#8bb9d7" stroke-width="2" opacity="0.38"/><text x="805" y="148" text-anchor="middle" class="section" style="fill:#1f334e;">History under resolved Q_t</text><text x="830" y="178" text-anchor="middle" class="label" style="fill:#1f334e;">No exact match     ·     v4 compatible</text><text x="830" y="211" text-anchor="middle" class="small" style="fill:#1f334e;">V_i = (Q_i, W_i)</text><path d="M543.16 344 C559.56 344 567.44 344 583.02 344" fill="none" stroke="#52667d" stroke-width="1.8" stroke-linecap="round" stroke-linejoin="round" opacity="1" marker-end="url(#m-navy)"/><path d="M646.16 344 C662.56 344 670.44 344 686.02 344" fill="none" stroke="#52667d" stroke-width="1.8" stroke-linecap="round" stroke-linejoin="round" opacity="1" marker-end="url(#m-navy)"/><path d="M749.16 344 C765.56 344 779.44 261 795.02 261" fill="none" stroke="#52667d" stroke-width="1.8" stroke-linecap="round" stroke-linejoin="round" opacity="1" marker-end="url(#m-navy)"/><path d="M858.16 261 C874.56 261 888.44 261 904.02 261" fill="none" stroke="#52667d" stroke-width="1.8" stroke-linecap="round" stroke-linejoin="round" opacity="1" marker-end="url(#m-navy)"/><path d="M967.16 261 C983.56 261 997.44 261 1013.02 261" fill="none" stroke="#52667d" stroke-width="1.8" stroke-linecap="round" stroke-linejoin="round" opacity="1" marker-end="url(#m-navy)"/><path d="M749.16 344 C765.56 344 779.44 439 795.02 439" fill="none" stroke="#52667d" stroke-width="1.8" stroke-linecap="round" stroke-linejoin="round" opacity="1" marker-end="url(#m-navy)"/><rect x="483.3" y="324.32" width="57.4" height="39.36" rx="10.66" fill="white" stroke="#1f334e" stroke-width="1.7" opacity="1"/><path d="M493.14 325.96 H512 V362.04 H493.14 Q484.94 362.04 484.94 353.84000000000003 V334.15999999999997 Q484.94 325.96 493.14 325.96" fill="#dcecf8" stroke="none"/><path d="M512 325.96 H530.86 Q539.0600000000001 325.96 539.0600000000001 334.15999999999997 V353.84000000000003 Q539.0600000000001 362.04 530.86 362.04 H512 Z" fill="#d3ebe7" stroke="none"/><path d="M512 326.78 V361.22" fill="none" stroke="#bdcbd4" stroke-width="1" stroke-linecap="round" stroke-linejoin="round" opacity="1"/><text x="498.06" y="348.1" text-anchor="middle" class="tiny" style="fill:#1f334e;">Q0</text><text x="525.94" y="348.1" text-anchor="middle" class="tiny" style="fill:#1f334e;">W0</text><text x="512" y="381.72" text-anchor="middle" class="label" style="fill:#1f334e;font-weight:700;">v0</text><rect x="586.3" y="324.32" width="57.4" height="39.36" rx="10.66" fill="white" stroke="#1f334e" stroke-width="1.7" opacity="1"/><path d="M596.14 325.96 H615 V362.04 H596.14 Q587.9399999999999 362.04 587.9399999999999 353.84000000000003 V334.15999999999997 Q587.9399999999999 325.96 596.14 325.96" fill="#dcecf8" stroke="none"/><path d="M615 325.96 H633.8599999999999 Q642.06 325.96 642.06 334.15999999999997 V353.84000000000003 Q642.06 362.04 633.8599999999999 362.04 H615 Z" fill="#d3ebe7" stroke="none"/><path d="M615 326.78 V361.22" fill="none" stroke="#bdcbd4" stroke-width="1" stroke-linecap="round" stroke-linejoin="round" opacity="1"/><text x="601.06" y="348.1" text-anchor="middle" class="tiny" style="fill:#1f334e;">Q1</text><text x="628.94" y="348.1" text-anchor="middle" class="tiny" style="fill:#1f334e;">W1</text><text x="615" y="381.72" text-anchor="middle" class="label" style="fill:#1f334e;font-weight:700;">v1</text><rect x="689.3" y="324.32" width="57.4" height="39.36" rx="10.66" fill="white" stroke="#1f334e" stroke-width="1.7" opacity="1"/><path d="M699.14 325.96 H718 V362.04 H699.14 Q690.9399999999999 362.04 690.9399999999999 353.84000000000003 V334.15999999999997 Q690.9399999999999 325.96 699.14 325.96" fill="#dcecf8" stroke="none"/><path d="M718 325.96 H736.8599999999999 Q745.06 325.96 745.06 334.15999999999997 V353.84000000000003 Q745.06 362.04 736.8599999999999 362.04 H718 Z" fill="#d3ebe7" stroke="none"/><path d="M718 326.78 V361.22" fill="none" stroke="#bdcbd4" stroke-width="1" stroke-linecap="round" stroke-linejoin="round" opacity="1"/><text x="704.06" y="348.1" text-anchor="middle" class="tiny" style="fill:#1f334e;">Q2</text><text x="731.94" y="348.1" text-anchor="middle" class="tiny" style="fill:#1f334e;">W2</text><text x="718" y="381.72" text-anchor="middle" class="label" style="fill:#1f334e;font-weight:700;">v2</text><rect x="798.3" y="241.32" width="57.4" height="39.36" rx="10.66" fill="white" stroke="#1f334e" stroke-width="1.7" opacity="1"/><path d="M808.14 242.95999999999998 H827 V279.04 H808.14 Q799.9399999999999 279.04 799.9399999999999 270.84000000000003 V251.16 Q799.9399999999999 242.95999999999998 808.14 242.95999999999998" fill="#dcecf8" stroke="none"/><path d="M827 242.95999999999998 H845.8599999999999 Q854.06 242.95999999999998 854.06 251.16 V270.84000000000003 Q854.06 279.04 845.8599999999999 279.04 H827 Z" fill="#d3ebe7" stroke="none"/><path d="M827 243.78 V278.22" fill="none" stroke="#bdcbd4" stroke-width="1" stroke-linecap="round" stroke-linejoin="round" opacity="1"/><text x="813.06" y="265.1" text-anchor="middle" class="tiny" style="fill:#1f334e;">Q3</text><text x="840.94" y="265.1" text-anchor="middle" class="tiny" style="fill:#1f334e;">W3</text><text x="827" y="298.72" text-anchor="middle" class="label" style="fill:#1f334e;font-weight:700;">v3</text><rect x="907.3" y="241.32" width="57.4" height="39.36" rx="10.66" fill="white" stroke="#1f334e" stroke-width="1.7" opacity="1"/><path d="M917.14 242.95999999999998 H936 V279.04 H917.14 Q908.9399999999999 279.04 908.9399999999999 270.84000000000003 V251.16 Q908.9399999999999 242.95999999999998 917.14 242.95999999999998" fill="#dcecf8" stroke="none"/><path d="M936 242.95999999999998 H954.8599999999999 Q963.06 242.95999999999998 963.06 251.16 V270.84000000000003 Q963.06 279.04 954.8599999999999 279.04 H936 Z" fill="#d3ebe7" stroke="none"/><path d="M936 243.78 V278.22" fill="none" stroke="#bdcbd4" stroke-width="1" stroke-linecap="round" stroke-linejoin="round" opacity="1"/><text x="922.06" y="265.1" text-anchor="middle" class="tiny" style="fill:#1f334e;">Q5</text><text x="949.94" y="265.1" text-anchor="middle" class="tiny" style="fill:#1f334e;">W5</text><text x="936" y="298.72" text-anchor="middle" class="label" style="fill:#1f334e;font-weight:700;">v5</text><rect x="1016.3" y="241.32" width="57.4" height="39.36" rx="10.66" fill="white" stroke="#1f334e" stroke-width="1.7" opacity="1"/><path d="M1026.1399999999999 242.95999999999998 H1045 V279.04 H1026.1399999999999 Q1017.9399999999999 279.04 1017.9399999999999 270.84000000000003 V251.16 Q1017.9399999999999 242.95999999999998 1026.1399999999999 242.95999999999998" fill="#dcecf8" stroke="none"/><path d="M1045 242.95999999999998 H1063.8600000000001 Q1072.06 242.95999999999998 1072.06 251.16 V270.84000000000003 Q1072.06 279.04 1063.8600000000001 279.04 H1045 Z" fill="#d3ebe7" stroke="none"/><path d="M1045 243.78 V278.22" fill="none" stroke="#bdcbd4" stroke-width="1" stroke-linecap="round" stroke-linejoin="round" opacity="1"/><text x="1031.06" y="265.1" text-anchor="middle" class="tiny" style="fill:#1f334e;">Q6</text><text x="1058.94" y="265.1" text-anchor="middle" class="tiny" style="fill:#1f334e;">W6</text><text x="1045" y="298.72" text-anchor="middle" class="label" style="fill:#1f334e;font-weight:700;">v6</text><rect x="798.3" y="419.32" width="57.4" height="39.36" rx="10.66" fill="white" stroke="#e97732" stroke-width="2.7" opacity="1"/><path d="M808.14 420.96 H827 V457.04 H808.14 Q799.9399999999999 457.04 799.9399999999999 448.84000000000003 V429.15999999999997 Q799.9399999999999 420.96 808.14 420.96" fill="#dcecf8" stroke="none"/><path d="M827 420.96 H845.8599999999999 Q854.06 420.96 854.06 429.15999999999997 V448.84000000000003 Q854.06 457.04 845.8599999999999 457.04 H827 Z" fill="#d3ebe7" stroke="none"/><path d="M827 421.78 V456.22" fill="none" stroke="#bdcbd4" stroke-width="1" stroke-linecap="round" stroke-linejoin="round" opacity="1"/><text x="813.06" y="443.1" text-anchor="middle" class="tiny" style="fill:#1f334e;">Q4</text><text x="840.94" y="443.1" text-anchor="middle" class="tiny" style="fill:#1f334e;">W4</text><text x="827" y="476.72" text-anchor="middle" class="label" style="fill:#e97732;font-weight:700;">v4</text><text x="1045" y="208" text-anchor="middle" class="small" style="fill:#1f334e;">Previous HEAD</text><path d="M287 327 C436 385 619 438 790 439" fill="none" stroke="#e97732" stroke-width="3.2" stroke-linecap="round" stroke-linejoin="round" opacity="1" marker-end="url(#m-orange)"/><text x="487" y="445" text-anchor="middle" class="label" style="fill:#e97732;font-weight:700;">COMMIT</text><text x="522" y="475" text-anchor="middle" class="small" style="fill:#e97732;">(Q_t, b_t = v4, h_t)</text><path d="M89 452 H161" fill="none" stroke="#9ca6af" stroke-width="1.7" stroke-linecap="round" stroke-linejoin="round" opacity="1" stroke-dasharray="5 5" marker-end="url(#m-gray)"/><text x="177" y="457" text-anchor="start" class="tiny" style="fill:#9ca6af;">REUSE → exact V_i (none here)</text><path d="M829 470 C852 511 907 530 934 531" fill="none" stroke="#e97732" stroke-width="3" stroke-linecap="round" stroke-linejoin="round" opacity="1" marker-end="url(#m-orange)"/><path d="M811 470 C804 514 783 551 783 595" fill="none" stroke="#bdcbd4" stroke-width="1.4" stroke-linecap="round" stroke-linejoin="round" opacity="1"/><path d="M964 508 L991 535 L964 562 L937 535 Z" fill="#f0f4f7" stroke="#1f334e" stroke-width="1.7" stroke-linecap="round" stroke-linejoin="round" opacity="1"/><text x="964" y="541" text-anchor="middle" class="label" style="fill:#1f334e;font-weight:700;">R</text><text x="964" y="586" text-anchor="middle" class="small" style="fill:#1f334e;">Router</text><text x="973" y="608" text-anchor="middle" class="small" style="fill:#e97732;">Reuse &amp; Patch</text><text x="973" y="630" text-anchor="middle" class="tiny" style="fill:#9ca6af;">Fresh Solve: empty</text><rect x="1060" y="546" width="377" height="219" rx="26" fill="#f8fcfb" stroke="#79b7ac" stroke-width="1.9" opacity="1" stroke-dasharray="8 6"/><text x="1080" y="575" text-anchor="start" class="small" style="fill:#1f334e;">isolated candidate</text><path d="M990 535 H1071" fill="none" stroke="#e97732" stroke-width="3" stroke-linecap="round" stroke-linejoin="round" opacity="1" marker-end="url(#m-orange)"/><rect x="1091" y="610.0" width="109.44" height="20.52" rx="3.8" fill="#d3ebe7" stroke="#86b6ad" stroke-width="1.4" opacity="1"/><text x="1145.72" y="624.5692" text-anchor="middle" class="tiny" style="fill:#1f334e;">Core Logic</text><rect x="1091" y="635.08" width="109.44" height="20.52" rx="3.8" fill="#d3ebe7" stroke="#86b6ad" stroke-width="1.4" opacity="1"/><text x="1145.72" y="649.6492000000001" text-anchor="middle" class="tiny" style="fill:#1f334e;">Evaluation</text><rect x="1091" y="660.16" width="109.44" height="20.52" rx="3.8" fill="#d3ebe7" stroke="#86b6ad" stroke-width="1.4" opacity="1"/><text x="1145.72" y="674.7292" text-anchor="middle" class="tiny" style="fill:#1f334e;">Legacy API</text><rect x="1091" y="685.24" width="109.44" height="20.52" rx="3.8" fill="#d3ebe7" stroke="#86b6ad" stroke-width="1.4" opacity="1"/><text x="1145.72" y="699.8092" text-anchor="middle" class="tiny" style="fill:#1f334e;">Utilities</text><text x="1146" y="748" text-anchor="middle" class="small" style="fill:#1f334e;">W_t^0</text><ellipse cx="1228" cy="652" rx="29" ry="29" fill="#fff5ec" stroke="#e97732" stroke-width="1.8" opacity="1"/><path d="M1216 663 L1237 641 M1226 639 Q1243 634 1245 649 L1238 655" fill="none" stroke="#e97732" stroke-width="3" stroke-linecap="round" stroke-linejoin="round" opacity="1"/><text x="1228" y="593" text-anchor="middle" class="tiny" style="fill:#1f334e;">Task-Native</text><text x="1228" y="613" text-anchor="middle" class="tiny" style="fill:#1f334e;">Update</text><path d="M1204 661 H1198 M1259 661 H1280" fill="none" stroke="#e97732" stroke-width="2" stroke-linecap="round" stroke-linejoin="round" opacity="1" marker-end="url(#m-orange)"/><rect x="1294" y="610.0" width="109.44" height="20.52" rx="3.8" fill="#d9eee3" stroke="#35936e" stroke-width="1.4" opacity="1"/><text x="1348.72" y="624.5692" text-anchor="middle" class="tiny" style="fill:#1f334e;">Core Logic</text><rect x="1294" y="635.08" width="109.44" height="20.52" rx="3.8" fill="#fff0e4" stroke="#e97732" stroke-width="1.4" opacity="1"/><text x="1348.72" y="649.6492000000001" text-anchor="middle" class="tiny" style="fill:#1f334e;">Evaluation&#x27;</text><path d="M1300.08 670.42 H1397.3600000000001" fill="none" stroke="#9ca6af" stroke-width="2" stroke-linecap="round" stroke-linejoin="round" opacity="1" stroke-dasharray="5 4"/><text x="1348.72" y="674.9344" text-anchor="middle" class="tiny" style="fill:#9ca6af;">excluded</text><rect x="1294" y="685.24" width="109.44" height="20.52" rx="3.8" fill="#d9eee3" stroke="#35936e" stroke-width="1.4" opacity="1"/><text x="1348.72" y="699.8092" text-anchor="middle" class="tiny" style="fill:#1f334e;">Utilities</text><text x="1349" y="748" text-anchor="middle" class="small" style="fill:#1f334e;">W~_t</text><text x="783" y="583" text-anchor="middle" class="small" style="fill:#1f334e;">Historical W4</text><rect x="728" y="605.0" width="109.44" height="20.52" rx="3.8" fill="#d3ebe7" stroke="#86b6ad" stroke-width="1.4" opacity="1"/><text x="782.72" y="619.5692" text-anchor="middle" class="tiny" style="fill:#1f334e;">Core Logic</text><rect x="728" y="630.08" width="109.44" height="20.52" rx="3.8" fill="#d3ebe7" stroke="#86b6ad" stroke-width="1.4" opacity="1"/><text x="782.72" y="644.6492000000001" text-anchor="middle" class="tiny" style="fill:#1f334e;">Evaluation</text><rect x="728" y="655.16" width="109.44" height="20.52" rx="3.8" fill="#d3ebe7" stroke="#86b6ad" stroke-width="1.4" opacity="1"/><text x="782.72" y="669.7292" text-anchor="middle" class="tiny" style="fill:#1f334e;">Legacy API</text><rect x="728" y="680.24" width="109.44" height="20.52" rx="3.8" fill="#d3ebe7" stroke="#86b6ad" stroke-width="1.4" opacity="1"/><text x="782.72" y="694.8092" text-anchor="middle" class="tiny" style="fill:#1f334e;">Utilities</text><text x="783" y="748" text-anchor="middle" class="tiny" style="fill:#52667d;">immutable</text><path d="M840 662 H1075" fill="none" stroke="#e97732" stroke-width="2.3" stroke-linecap="round" stroke-linejoin="round" opacity="1" marker-end="url(#m-orange)"/><text x="948" y="683" text-anchor="middle" class="tiny" style="fill:#e97732;">fork</text><rect x="1332.6" y="402.04" width="72.8" height="49.92" rx="13.52" fill="white" stroke="#35936e" stroke-width="2.7" opacity="1"/><path d="M1345.08 404.12 H1369 V449.88000000000005 H1345.08 Q1334.6799999999998 449.88000000000005 1334.6799999999998 439.48 V414.52000000000004 Q1334.6799999999998 404.12 1345.08 404.12" fill="#dcecf8" stroke="none"/><path d="M1369 404.12 H1392.9199999999998 Q1403.32 404.12 1403.32 414.52000000000004 V439.48 Q1403.32 449.88000000000005 1392.9199999999998 449.88000000000005 H1369 Z" fill="#d3ebe7" stroke="none"/><path d="M1369 405.16 V448.84000000000003" fill="none" stroke="#bdcbd4" stroke-width="1" stroke-linecap="round" stroke-linejoin="round" opacity="1"/><text x="1351.32" y="432.2" text-anchor="middle" class="tiny" style="fill:#1f334e;">Q7</text><text x="1386.68" y="432.2" text-anchor="middle" class="tiny" style="fill:#1f334e;">W7</text><text x="1369" y="474.84" text-anchor="middle" class="label" style="fill:#35936e;font-weight:700;">v7</text><text x="1369" y="350" text-anchor="middle" class="small" style="fill:#35936e;">Success → commit</text><path d="M1388 610 C1439 562 1432 490 1397 459" fill="none" stroke="#35936e" stroke-width="2.1" stroke-linecap="round" stroke-linejoin="round" opacity="1" marker-end="url(#m-green)"/><path d="M1397 692 C1455 712 1467 752 1467 782" fill="none" stroke="#9ca6af" stroke-width="1.5" stroke-linecap="round" stroke-linejoin="round" opacity="1" stroke-dasharray="4 5" marker-end="url(#m-gray)"/><text x="1320" y="801" text-anchor="middle" class="tiny" style="fill:#9ca6af;">Failure: discard candidate only</text><text x="149" y="568" text-anchor="middle" class="small" style="fill:#1f334e;">Final Outcome</text><text x="149" y="593" text-anchor="middle" class="tiny" style="fill:#745baa;">norm A_out</text><text x="149" y="632" text-anchor="middle" class="small" style="fill:#1f334e;">Tracking</text><text x="149" y="656" text-anchor="middle" class="tiny" style="fill:#1f334e;">Fidelity · Base · Staleness</text><text x="149" y="679" text-anchor="middle" class="tiny" style="fill:#745baa;">norm A_track</text><path d="M149 691 V710" fill="none" stroke="#745baa" stroke-width="2" stroke-linecap="round" stroke-linejoin="round" opacity="1" marker-end="url(#m-purple)"/><rect x="74" y="711" width="150" height="37" rx="18" fill="#f0edf7" stroke="#745baa" stroke-width="1.3" opacity="1"/><text x="149" y="735" text-anchor="middle" class="tiny" style="fill:#745baa;font-weight:700;">Harness RL / GRPO</text><path d="M149 753 C35 772 42 537 222 316" fill="none" stroke="#745baa" stroke-width="2" stroke-linecap="round" stroke-linejoin="round" opacity="1" marker-end="url(#m-purple)"/><text x="465" y="817" text-anchor="start" class="tiny" style="fill:#9ca6af;">Frozen: Router · Update Agent · Domain Harness</text></svg>